<svg width="126" height="87" viewBox="0 0 126 87" fill="none" xmlns="http://www.w3.org/2000/svg">
<g clip-path="url(#clip0)">
<path d="M67.5 52C67.5 69.5 45 84.5 45 84.5C45 84.5 22.5 69.5 22.5 52C22.5 46.0326 24.8705 40.3097 29.0901 36.0901C33.3097 31.8705 39.0326 29.5 45 29.5C50.9674 29.5 56.6903 31.8705 60.9099 36.0901C65.1295 40.3097 67.5 46.0326 67.5 52Z" stroke="#2A2A2A" stroke-width="6" stroke-linecap="round" stroke-linejoin="round"/>
<path d="M45 59.5C49.1421 59.5 52.5 56.1421 52.5 52C52.5 47.8579 49.1421 44.5 45 44.5C40.8579 44.5 37.5 47.8579 37.5 52C37.5 56.1421 40.8579 59.5 45 59.5Z" stroke="#2A2A2A" stroke-width="6" stroke-linecap="round" stroke-linejoin="round"/>
</g>
<path d="M9.94531 11.2109C9.85677 12.4349 9.40365 13.3984 8.58594 14.1016C7.77344 14.8047 6.70052 15.1562 5.36719 15.1562C3.90885 15.1562 2.76042 14.6667 1.92188 13.6875C1.08854 12.7031 0.671875 11.3542 0.671875 9.64062V8.94531C0.671875 7.85156 0.864583 6.88802 1.25 6.05469C1.63542 5.22135 2.1849 4.58333 2.89844 4.14062C3.61719 3.69271 4.45052 3.46875 5.39844 3.46875C6.71094 3.46875 7.76823 3.82031 8.57031 4.52344C9.3724 5.22656 9.83594 6.21354 9.96094 7.48438H7.61719C7.5599 6.75 7.35417 6.21875 7 5.89062C6.65104 5.55729 6.11719 5.39062 5.39844 5.39062C4.61719 5.39062 4.03125 5.67188 3.64062 6.23438C3.25521 6.79167 3.05729 7.65885 3.04688 8.83594V9.69531C3.04688 10.9245 3.23177 11.8229 3.60156 12.3906C3.97656 12.9583 4.5651 13.2422 5.36719 13.2422C6.09115 13.2422 6.63021 13.0781 6.98438 12.75C7.34375 12.4167 7.54948 11.9036 7.60156 11.2109H9.94531ZM13.5391 7.46875C14.138 6.75 14.8906 6.39062 15.7969 6.39062C17.6302 6.39062 18.5599 7.45573 18.5859 9.58594V15H16.3281V9.64844C16.3281 9.16406 16.224 8.80729 16.0156 8.57812C15.8073 8.34375 15.4609 8.22656 14.9766 8.22656C14.3151 8.22656 13.8359 8.48177 13.5391 8.99219V15H11.2812V3H13.5391V7.46875ZM24.1797 15.1562C22.9401 15.1562 21.9297 14.776 21.1484 14.0156C20.3724 13.2552 19.9844 12.2422 19.9844 10.9766V10.7578C19.9844 9.90885 20.1484 9.15104 20.4766 8.48438C20.8047 7.8125 21.2682 7.29688 21.8672 6.9375C22.4714 6.57292 23.1589 6.39062 23.9297 6.39062C25.0859 6.39062 25.9948 6.75521 26.6562 7.48438C27.3229 8.21354 27.6562 9.2474 27.6562 10.5859V11.5078H22.2734C22.3464 12.0599 22.5651 12.5026 22.9297 12.8359C23.2995 13.1693 23.7656 13.3359 24.3281 13.3359C25.1979 13.3359 25.8776 13.0208 26.3672 12.3906L27.4766 13.6328C27.138 14.112 26.6797 14.487 26.1016 14.7578C25.5234 15.0234 24.8828 15.1562 24.1797 15.1562ZM23.9219 8.21875C23.474 8.21875 23.1094 8.36979 22.8281 8.67188C22.5521 8.97396 22.375 9.40625 22.2969 9.96875H25.4375V9.78906C25.4271 9.28906 25.2917 8.90365 25.0312 8.63281C24.7708 8.35677 24.401 8.21875 23.9219 8.21875ZM32.4609 13.3359C32.8776 13.3359 33.2161 13.2214 33.4766 12.9922C33.737 12.763 33.8724 12.4583 33.8828 12.0781H36C35.9948 12.651 35.8385 13.1771 35.5312 13.6562C35.224 14.1302 34.8021 14.5 34.2656 14.7656C33.7344 15.026 33.1458 15.1562 32.5 15.1562C31.2917 15.1562 30.3385 14.7734 29.6406 14.0078C28.9427 13.237 28.5938 12.1745 28.5938 10.8203V10.6719C28.5938 9.36979 28.9401 8.33073 29.6328 7.55469C30.3255 6.77865 31.276 6.39062 32.4844 6.39062C33.5417 6.39062 34.388 6.69271 35.0234 7.29688C35.6641 7.89583 35.9896 8.69531 36 9.69531H33.8828C33.8724 9.25781 33.737 8.90365 33.4766 8.63281C33.2161 8.35677 32.8724 8.21875 32.4453 8.21875C31.9193 8.21875 31.5208 8.41146 31.25 8.79688C30.9844 9.17708 30.8516 9.79688 30.8516 10.6562V10.8906C30.8516 11.7604 30.9844 12.3854 31.25 12.7656C31.5156 13.1458 31.9193 13.3359 32.4609 13.3359ZM40.3594 11.6094L39.5469 12.4219V15H37.2891V3H39.5469V9.64844L39.9844 9.08594L42.1484 6.54688H44.8594L41.8047 10.0703L45.125 15H42.5312L40.3594 11.6094ZM53.4453 10.8516C53.4453 12.1536 53.1484 13.1979 52.5547 13.9844C51.9661 14.7656 51.1693 15.1562 50.1641 15.1562C49.3099 15.1562 48.6198 14.8594 48.0938 14.2656V18.25H45.8359V6.54688H47.9297L48.0078 7.375C48.5547 6.71875 49.2682 6.39062 50.1484 6.39062C51.1901 6.39062 52 6.77604 52.5781 7.54688C53.1562 8.31771 53.4453 9.38021 53.4453 10.7344V10.8516ZM51.1875 10.6875C51.1875 9.90104 51.0469 9.29427 50.7656 8.86719C50.4896 8.4401 50.0859 8.22656 49.5547 8.22656C48.8464 8.22656 48.3594 8.4974 48.0938 9.03906V12.5C48.3698 13.0573 48.862 13.3359 49.5703 13.3359C50.6484 13.3359 51.1875 12.4531 51.1875 10.6875ZM54.5 10.6953C54.5 9.85677 54.6615 9.10938 54.9844 8.45312C55.3073 7.79688 55.7708 7.28906 56.375 6.92969C56.9844 6.57031 57.6901 6.39062 58.4922 6.39062C59.6328 6.39062 60.5625 6.73958 61.2812 7.4375C62.0052 8.13542 62.4089 9.08333 62.4922 10.2812L62.5078 10.8594C62.5078 12.1562 62.1458 13.1979 61.4219 13.9844C60.6979 14.7656 59.7266 15.1562 58.5078 15.1562C57.2891 15.1562 56.3151 14.7656 55.5859 13.9844C54.862 13.2031 54.5 12.1406 54.5 10.7969V10.6953ZM56.7578 10.8594C56.7578 11.6615 56.9089 12.276 57.2109 12.7031C57.513 13.125 57.9453 13.3359 58.5078 13.3359C59.0547 13.3359 59.4818 13.1276 59.7891 12.7109C60.0964 12.2891 60.25 11.6172 60.25 10.6953C60.25 9.90885 60.0964 9.29948 59.7891 8.86719C59.4818 8.4349 59.0495 8.21875 58.4922 8.21875C57.9401 8.21875 57.513 8.4349 57.2109 8.86719C56.9089 9.29427 56.7578 9.95833 56.7578 10.8594ZM66.2812 15H64.0156V6.54688H66.2812V15ZM63.8828 4.35938C63.8828 4.02083 63.9948 3.74219 64.2188 3.52344C64.4479 3.30469 64.7578 3.19531 65.1484 3.19531C65.5339 3.19531 65.8411 3.30469 66.0703 3.52344C66.2995 3.74219 66.4141 4.02083 66.4141 4.35938C66.4141 4.70312 66.2969 4.98438 66.0625 5.20312C65.8333 5.42188 65.5286 5.53125 65.1484 5.53125C64.7682 5.53125 64.4609 5.42188 64.2266 5.20312C63.9974 4.98438 63.8828 4.70312 63.8828 4.35938ZM70.2266 6.54688L70.2969 7.52344C70.901 6.76823 71.7109 6.39062 72.7266 6.39062C73.6224 6.39062 74.2891 6.65365 74.7266 7.17969C75.1641 7.70573 75.388 8.49219 75.3984 9.53906V15H73.1406V9.59375C73.1406 9.11458 73.0365 8.76823 72.8281 8.55469C72.6198 8.33594 72.2734 8.22656 71.7891 8.22656C71.1536 8.22656 70.6771 8.4974 70.3594 9.03906V15H68.1016V6.54688H70.2266ZM79.8203 4.46875V6.54688H81.2656V8.20312H79.8203V12.4219C79.8203 12.7344 79.8802 12.9583 80 13.0938C80.1198 13.2292 80.349 13.2969 80.6875 13.2969C80.9375 13.2969 81.1589 13.2786 81.3516 13.2422V14.9531C80.9089 15.0885 80.4531 15.1562 79.9844 15.1562C78.401 15.1562 77.5938 14.3568 77.5625 12.7578V8.20312H76.3281V6.54688H77.5625V4.46875H79.8203ZM94.2109 15H86.4141V13.4531L90.0938 9.53125C90.599 8.97917 90.9714 8.4974 91.2109 8.08594C91.4557 7.67448 91.5781 7.28385 91.5781 6.91406C91.5781 6.40885 91.4505 6.01302 91.1953 5.72656C90.9401 5.4349 90.5755 5.28906 90.1016 5.28906C89.5911 5.28906 89.1875 5.46615 88.8906 5.82031C88.599 6.16927 88.4531 6.63021 88.4531 7.20312H86.1875C86.1875 6.51042 86.3516 5.8776 86.6797 5.30469C87.013 4.73177 87.4818 4.28385 88.0859 3.96094C88.6901 3.63281 89.375 3.46875 90.1406 3.46875C91.3125 3.46875 92.2214 3.75 92.8672 4.3125C93.5182 4.875 93.8438 5.66927 93.8438 6.69531C93.8438 7.25781 93.6979 7.83073 93.4062 8.41406C93.1146 8.9974 92.6146 9.67708 91.9062 10.4531L89.3203 13.1797H94.2109V15Z" fill="#1D1D1D"/>
<path d="M123 4L112 15L107 10" stroke="#52FF00" stroke-width="5" stroke-linecap="round" stroke-linejoin="round"/>
<defs>
<clipPath id="clip0">
<rect width="60" height="60" fill="white" transform="translate(15 27)"/>
</clipPath>
</defs>
</svg>
